<?xml version="1.0" encoding="utf-8"?>
<!-- Generator: Adobe Illustrator 16.0.0, SVG Export Plug-In . SVG Version: 6.00 Build 0)  -->
<!DOCTYPE svg PUBLIC "-//W3C//DTD SVG 1.1//EN" "http://www.w3.org/Graphics/SVG/1.1/DTD/svg11.dtd">
<svg version="1.1" id="Calque_1" xmlns="http://www.w3.org/2000/svg" xmlns:xlink="http://www.w3.org/1999/xlink" x="0px" y="0px"
	 width="1366px" height="398px" viewBox="0 0 1366 398" enable-background="new 0 0 1366 398" xml:space="preserve">
<g>
	<title>background</title>
	<rect id="canvas_background" x="-1" y="-1" fill="none" width="1368" height="400"/>
</g>
<g>
	<title>Layer 1</title>
	<g id="svg_1">
		<path id="svg_3" fill="#4E0250" d="M1367.126,0H-33c2.226,166.275-42.665,274.368-36.673,276.279
			C239.97,375.075,790.042,396,1367.126,396C1373.625,396,1373.625,264,1367.126,0z"/>
	</g>
	<g id="svg_32">
		<g id="svg_30" transform="matrix(0.760945502269512,0,0,0.760462771312199,-115753.42315881557,-33854.790469989464) ">
			<title>background</title>
			<rect id="svg_28" x="152027.375" y="44611.594" fill="none" width="2002.003" height="802.005"/>
		</g>
		<g id="svg_31" transform="matrix(0.760945502269512,0,0,0.760462771312199,-115753.42315881557,-33854.790469989464) ">
			<title>Layer 1</title>
			<g id="svg_24">
				<path id="svg_27" fill="#3CCBDA" d="M153923.063,44826.84c-666.906,0-1015.109,59.738-1604.125,177.926l114.391,59.531
					l1284.063,10.477l211.578,22.82l-5.906-270.75l0,0l0,0V44826.84z"/>
				<path id="svg_26" fill="#FFBB00" d="M152108.063,44870.93v207.996l1694-44.023c-373.734-74.859-671.031-121.043-891.891-138.559
					c-248.109-19.68-516.453-28.012-802.109-25.422l0,0V44870.93z"/>
				<path id="svg_25" fill="#F7F7EB" d="M152910.141,44896.355c-163.219,27.102-696.75,104.789-908.391,152.938l175.938,29.047
					l180.234,19.055c-780.844-106.063-99.438,315.801,392.781,11.316l924.297-25.398l273.891,25.082
					c9.813-0.418,19.625-0.871,29.453-1.348l-42.063-60.621c-371.188-77.977-713.219-128.008-1026.109-150.07H152910.141z"/>
			</g>
			<path id="svg_23" fill="#F7F7EB" d="M152113.375,45046.875c56.813,0,102.859,25.266,102.859,56.43s-46.047,56.426-102.859,56.426
				s-102.859-25.262-102.859-56.426S152056.563,45046.875,152113.375,45046.875z"/>
			<path id="svg_22" fill="#F7F7EB" d="M152816.969,45311.16c0.391,0,0.719,0,0.719,0S152817.359,45311.16,152816.969,45311.16
				s-0.719,0-0.719,0S152816.578,45311.16,152816.969,45311.16z"/>
		</g>
	</g>
	<g id="svg_12" transform="translate(-288,-16) ">
		<g id="svg_6" transform="matrix(0.9454857683794265,0,0,0.968006200914629,-66437.80510563945,-20374.912898964856) ">
			<path id="svg_7" fill="#4E0250" d="M71969,20786.068h-1400.125c2.219,339.607,6.336,510.367,12.328,512.277
				c309.641,98.797,810.719,143.723,1387.797,143.723C71975.5,21442.068,71975.5,21223.398,71969,20786.068z"/>
			<path id="svg_8" fill="#4E0250" d="M71977.992,21257.154l-1834.023-4.053c-0.273,145.293,2.391,217.268,8,215.928
				c436.594-104.359,1369.836-179.639,1799.898-157.068c6.391,0.338,15.094-17.932,26.117-54.807H71977.992z"/>
			<path id="svg_9" fill="#EBA0EF" d="M72031.867,21275.982c-666.906,0-1015.109,59.736-1604.117,177.924l114.391,59.529
				l1284.055,10.473l211.563,22.822l-5.898-270.75L72031.867,21275.982z"/>
			<path id="svg_10" fill="#A34FAA" d="M70159.445,21316.799c0,88.797-21.641,175.865-64.93,261.205l135.992-44.234l1680.359-50.723
				c-373.742-74.857-671.039-121.045-891.883-138.557c-248.109-19.676-573.875-30.279-859.539-27.689V21316.799z"/>
			<path id="svg_11" fill="#F7F7EB" d="M71025.391,21345.131c-144.797,27.67-288.555,66.572-420.523,121.273
				c-83.234,34.504-362.938,50.979-459.43,93.635l310.016,8.58l1333.258-36.633l273.891,25.082
				c10.5-0.453,20.578-0.922,30.258-1.398l-29.336-58.777c-3.367-0.361-6.742-0.719-10.117-1.074
				c-371.891-78.27-714.563-128.5-1028.023-150.689l0,0L71025.391,21345.131z"/>
		</g>
	</g>
</g>
</svg>
